<mxfile host="app.diagrams.net" agent="Mozilla/5.0 (Windows NT 10.0; Win64; x64; rv:132.0) Gecko/20100101 Firefox/132.0" version="24.8.3">
  <diagram name="Page-1" id="QIeu3MbxbPxealTcZrC9">
    <mxGraphModel dx="1247" dy="630" grid="1" gridSize="10" guides="1" tooltips="1" connect="1" arrows="1" fold="1" page="1" pageScale="1" pageWidth="1100" pageHeight="850" math="0" shadow="0">
      <root>
        <mxCell id="0" />
        <mxCell id="1" parent="0" />
        <mxCell id="9XWHqQ000PLASVVAu-tf-6" value="" style="edgeStyle=orthogonalEdgeStyle;rounded=0;orthogonalLoop=1;jettySize=auto;html=1;curved=0;entryX=0.5;entryY=0;entryDx=0;entryDy=0;" edge="1" parent="1" source="9XWHqQ000PLASVVAu-tf-1" target="9XWHqQ000PLASVVAu-tf-11">
          <mxGeometry relative="1" as="geometry">
            <mxPoint x="230" y="670" as="targetPoint" />
          </mxGeometry>
        </mxCell>
        <mxCell id="9XWHqQ000PLASVVAu-tf-1" value="" style="html=1;points=[[0,0,0,0,5],[0,1,0,0,-5],[1,0,0,0,5],[1,1,0,0,-5]];perimeter=orthogonalPerimeter;outlineConnect=0;targetShapes=umlLifeline;portConstraint=eastwest;newEdgeStyle={&quot;curved&quot;:0,&quot;rounded&quot;:0};fillColor=#000000;" vertex="1" parent="1">
          <mxGeometry x="150" y="630" width="10" height="80" as="geometry" />
        </mxCell>
        <mxCell id="9XWHqQ000PLASVVAu-tf-5" value="" style="edgeStyle=orthogonalEdgeStyle;rounded=0;orthogonalLoop=1;jettySize=auto;html=1;curved=0;entryX=0.5;entryY=1;entryDx=0;entryDy=0;" edge="1" parent="1" source="9XWHqQ000PLASVVAu-tf-2" target="9XWHqQ000PLASVVAu-tf-11">
          <mxGeometry relative="1" as="geometry">
            <mxPoint x="230" y="940" as="targetPoint" />
          </mxGeometry>
        </mxCell>
        <mxCell id="9XWHqQ000PLASVVAu-tf-2" value="" style="html=1;points=[[0,0,0,0,5],[0,1,0,0,-5],[1,0,0,0,5],[1,1,0,0,-5]];perimeter=orthogonalPerimeter;outlineConnect=0;targetShapes=umlLifeline;portConstraint=eastwest;newEdgeStyle={&quot;curved&quot;:0,&quot;rounded&quot;:0};fillColor=#000000;" vertex="1" parent="1">
          <mxGeometry x="150" y="900" width="10" height="80" as="geometry" />
        </mxCell>
        <mxCell id="9XWHqQ000PLASVVAu-tf-15" value="" style="edgeStyle=orthogonalEdgeStyle;rounded=0;orthogonalLoop=1;jettySize=auto;html=1;" edge="1" parent="1" source="9XWHqQ000PLASVVAu-tf-11" target="9XWHqQ000PLASVVAu-tf-14">
          <mxGeometry relative="1" as="geometry" />
        </mxCell>
        <mxCell id="9XWHqQ000PLASVVAu-tf-11" value="" style="ellipse;whiteSpace=wrap;html=1;aspect=fixed;" vertex="1" parent="1">
          <mxGeometry x="400" y="775" width="80" height="80" as="geometry" />
        </mxCell>
        <mxCell id="9XWHqQ000PLASVVAu-tf-18" value="" style="edgeStyle=orthogonalEdgeStyle;rounded=0;orthogonalLoop=1;jettySize=auto;html=1;curved=0;" edge="1" parent="1" source="9XWHqQ000PLASVVAu-tf-14" target="9XWHqQ000PLASVVAu-tf-17">
          <mxGeometry relative="1" as="geometry" />
        </mxCell>
        <mxCell id="9XWHqQ000PLASVVAu-tf-14" value="" style="html=1;points=[[0,0,0,0,5],[0,1,0,0,-5],[1,0,0,0,5],[1,1,0,0,-5]];perimeter=orthogonalPerimeter;outlineConnect=0;targetShapes=umlLifeline;portConstraint=eastwest;newEdgeStyle={&quot;curved&quot;:0,&quot;rounded&quot;:0};fillColor=#000000;" vertex="1" parent="1">
          <mxGeometry x="600" y="775" width="10" height="80" as="geometry" />
        </mxCell>
        <mxCell id="9XWHqQ000PLASVVAu-tf-16" value="" style="ellipse;whiteSpace=wrap;html=1;aspect=fixed;" vertex="1" parent="1">
          <mxGeometry x="690" y="630" width="80" height="80" as="geometry" />
        </mxCell>
        <mxCell id="9XWHqQ000PLASVVAu-tf-20" value="" style="edgeStyle=orthogonalEdgeStyle;rounded=0;orthogonalLoop=1;jettySize=auto;html=1;" edge="1" parent="1" source="9XWHqQ000PLASVVAu-tf-17" target="9XWHqQ000PLASVVAu-tf-19">
          <mxGeometry relative="1" as="geometry" />
        </mxCell>
        <mxCell id="9XWHqQ000PLASVVAu-tf-17" value="" style="ellipse;whiteSpace=wrap;html=1;aspect=fixed;" vertex="1" parent="1">
          <mxGeometry x="690" y="775" width="80" height="80" as="geometry" />
        </mxCell>
        <mxCell id="9XWHqQ000PLASVVAu-tf-32" style="edgeStyle=orthogonalEdgeStyle;rounded=0;orthogonalLoop=1;jettySize=auto;html=1;curved=0;entryX=1;entryY=0.5;entryDx=0;entryDy=0;" edge="1" parent="1" source="9XWHqQ000PLASVVAu-tf-19" target="9XWHqQ000PLASVVAu-tf-16">
          <mxGeometry relative="1" as="geometry">
            <Array as="points">
              <mxPoint x="890" y="780" />
              <mxPoint x="890" y="670" />
            </Array>
          </mxGeometry>
        </mxCell>
        <mxCell id="9XWHqQ000PLASVVAu-tf-36" value="" style="edgeStyle=orthogonalEdgeStyle;rounded=0;orthogonalLoop=1;jettySize=auto;html=1;curved=0;" edge="1" parent="1" source="9XWHqQ000PLASVVAu-tf-19" target="9XWHqQ000PLASVVAu-tf-35">
          <mxGeometry relative="1" as="geometry" />
        </mxCell>
        <mxCell id="9XWHqQ000PLASVVAu-tf-19" value="" style="html=1;points=[[0,0,0,0,5],[0,1,0,0,-5],[1,0,0,0,5],[1,1,0,0,-5]];perimeter=orthogonalPerimeter;outlineConnect=0;targetShapes=umlLifeline;portConstraint=eastwest;newEdgeStyle={&quot;curved&quot;:0,&quot;rounded&quot;:0};fillColor=#000000;" vertex="1" parent="1">
          <mxGeometry x="850" y="775" width="10" height="80" as="geometry" />
        </mxCell>
        <mxCell id="9XWHqQ000PLASVVAu-tf-21" value="" style="ellipse;whiteSpace=wrap;html=1;aspect=fixed;fillColor=#000000;" vertex="1" parent="1">
          <mxGeometry x="735" y="660" width="10" height="10" as="geometry" />
        </mxCell>
        <mxCell id="9XWHqQ000PLASVVAu-tf-22" value="" style="ellipse;whiteSpace=wrap;html=1;aspect=fixed;fillColor=#000000;" vertex="1" parent="1">
          <mxGeometry x="715" y="660" width="10" height="10" as="geometry" />
        </mxCell>
        <mxCell id="9XWHqQ000PLASVVAu-tf-23" value="" style="ellipse;whiteSpace=wrap;html=1;aspect=fixed;fillColor=#000000;" vertex="1" parent="1">
          <mxGeometry x="725" y="670" width="10" height="10" as="geometry" />
        </mxCell>
        <mxCell id="9XWHqQ000PLASVVAu-tf-24" value="" style="ellipse;whiteSpace=wrap;html=1;aspect=fixed;fillColor=#000000;" vertex="1" parent="1">
          <mxGeometry x="745" y="650" width="10" height="10" as="geometry" />
        </mxCell>
        <mxCell id="9XWHqQ000PLASVVAu-tf-25" value="" style="ellipse;whiteSpace=wrap;html=1;aspect=fixed;fillColor=#000000;" vertex="1" parent="1">
          <mxGeometry x="745" y="670" width="10" height="10" as="geometry" />
        </mxCell>
        <mxCell id="9XWHqQ000PLASVVAu-tf-26" value="" style="ellipse;whiteSpace=wrap;html=1;aspect=fixed;fillColor=#000000;" vertex="1" parent="1">
          <mxGeometry x="735" y="680" width="10" height="10" as="geometry" />
        </mxCell>
        <mxCell id="9XWHqQ000PLASVVAu-tf-27" value="" style="ellipse;whiteSpace=wrap;html=1;aspect=fixed;fillColor=#000000;" vertex="1" parent="1">
          <mxGeometry x="705" y="650" width="10" height="10" as="geometry" />
        </mxCell>
        <mxCell id="9XWHqQ000PLASVVAu-tf-28" value="" style="ellipse;whiteSpace=wrap;html=1;aspect=fixed;fillColor=#000000;" vertex="1" parent="1">
          <mxGeometry x="705" y="670" width="10" height="10" as="geometry" />
        </mxCell>
        <mxCell id="9XWHqQ000PLASVVAu-tf-29" value="" style="ellipse;whiteSpace=wrap;html=1;aspect=fixed;fillColor=#000000;" vertex="1" parent="1">
          <mxGeometry x="715" y="680" width="10" height="10" as="geometry" />
        </mxCell>
        <mxCell id="9XWHqQ000PLASVVAu-tf-30" value="" style="ellipse;whiteSpace=wrap;html=1;aspect=fixed;fillColor=#000000;" vertex="1" parent="1">
          <mxGeometry x="725" y="690" width="10" height="10" as="geometry" />
        </mxCell>
        <mxCell id="9XWHqQ000PLASVVAu-tf-34" style="edgeStyle=orthogonalEdgeStyle;rounded=0;orthogonalLoop=1;jettySize=auto;html=1;entryX=0;entryY=0;entryDx=0;entryDy=5;entryPerimeter=0;" edge="1" parent="1" source="9XWHqQ000PLASVVAu-tf-16" target="9XWHqQ000PLASVVAu-tf-14">
          <mxGeometry relative="1" as="geometry">
            <Array as="points">
              <mxPoint x="580" y="670" />
              <mxPoint x="580" y="780" />
            </Array>
          </mxGeometry>
        </mxCell>
        <mxCell id="9XWHqQ000PLASVVAu-tf-40" style="edgeStyle=orthogonalEdgeStyle;rounded=0;orthogonalLoop=1;jettySize=auto;html=1;" edge="1" parent="1" source="9XWHqQ000PLASVVAu-tf-35" target="9XWHqQ000PLASVVAu-tf-39">
          <mxGeometry relative="1" as="geometry">
            <mxPoint x="1120" y="670" as="targetPoint" />
            <Array as="points">
              <mxPoint x="1070" y="800" />
              <mxPoint x="1070" y="728" />
            </Array>
          </mxGeometry>
        </mxCell>
        <mxCell id="9XWHqQ000PLASVVAu-tf-110" style="edgeStyle=orthogonalEdgeStyle;rounded=0;orthogonalLoop=1;jettySize=auto;html=1;" edge="1" parent="1" source="9XWHqQ000PLASVVAu-tf-35" target="9XWHqQ000PLASVVAu-tf-75">
          <mxGeometry relative="1" as="geometry" />
        </mxCell>
        <mxCell id="9XWHqQ000PLASVVAu-tf-35" value="" style="ellipse;whiteSpace=wrap;html=1;aspect=fixed;" vertex="1" parent="1">
          <mxGeometry x="950" y="775" width="80" height="80" as="geometry" />
        </mxCell>
        <mxCell id="9XWHqQ000PLASVVAu-tf-42" value="" style="edgeStyle=orthogonalEdgeStyle;rounded=0;orthogonalLoop=1;jettySize=auto;html=1;curved=0;" edge="1" parent="1" source="9XWHqQ000PLASVVAu-tf-39" target="9XWHqQ000PLASVVAu-tf-41">
          <mxGeometry relative="1" as="geometry" />
        </mxCell>
        <mxCell id="9XWHqQ000PLASVVAu-tf-39" value="" style="html=1;points=[[0,0,0,0,5],[0,1,0,0,-5],[1,0,0,0,5],[1,1,0,0,-5]];perimeter=orthogonalPerimeter;outlineConnect=0;targetShapes=umlLifeline;portConstraint=eastwest;newEdgeStyle={&quot;curved&quot;:0,&quot;rounded&quot;:0};fillColor=#000000;" vertex="1" parent="1">
          <mxGeometry x="1130" y="687.5" width="10" height="80" as="geometry" />
        </mxCell>
        <mxCell id="9XWHqQ000PLASVVAu-tf-44" style="edgeStyle=orthogonalEdgeStyle;rounded=0;orthogonalLoop=1;jettySize=auto;html=1;" edge="1" parent="1" source="9XWHqQ000PLASVVAu-tf-41" target="9XWHqQ000PLASVVAu-tf-43">
          <mxGeometry relative="1" as="geometry">
            <Array as="points">
              <mxPoint x="1220" y="260" />
            </Array>
          </mxGeometry>
        </mxCell>
        <mxCell id="9XWHqQ000PLASVVAu-tf-105" style="edgeStyle=orthogonalEdgeStyle;rounded=0;orthogonalLoop=1;jettySize=auto;html=1;" edge="1" parent="1" source="9XWHqQ000PLASVVAu-tf-41" target="9XWHqQ000PLASVVAu-tf-55">
          <mxGeometry relative="1" as="geometry">
            <Array as="points">
              <mxPoint x="1240" y="580" />
            </Array>
          </mxGeometry>
        </mxCell>
        <mxCell id="9XWHqQ000PLASVVAu-tf-106" style="edgeStyle=orthogonalEdgeStyle;rounded=0;orthogonalLoop=1;jettySize=auto;html=1;" edge="1" parent="1" source="9XWHqQ000PLASVVAu-tf-41" target="9XWHqQ000PLASVVAu-tf-55">
          <mxGeometry relative="1" as="geometry">
            <Array as="points">
              <mxPoint x="1250" y="600" />
            </Array>
          </mxGeometry>
        </mxCell>
        <mxCell id="9XWHqQ000PLASVVAu-tf-41" value="" style="ellipse;whiteSpace=wrap;html=1;aspect=fixed;" vertex="1" parent="1">
          <mxGeometry x="1200" y="687.5" width="80" height="80" as="geometry" />
        </mxCell>
        <mxCell id="9XWHqQ000PLASVVAu-tf-47" value="" style="edgeStyle=orthogonalEdgeStyle;rounded=0;orthogonalLoop=1;jettySize=auto;html=1;curved=0;" edge="1" parent="1" source="9XWHqQ000PLASVVAu-tf-43" target="9XWHqQ000PLASVVAu-tf-46">
          <mxGeometry relative="1" as="geometry" />
        </mxCell>
        <mxCell id="9XWHqQ000PLASVVAu-tf-43" value="" style="html=1;points=[[0,0,0,0,5],[0,1,0,0,-5],[1,0,0,0,5],[1,1,0,0,-5]];perimeter=orthogonalPerimeter;outlineConnect=0;targetShapes=umlLifeline;portConstraint=eastwest;newEdgeStyle={&quot;curved&quot;:0,&quot;rounded&quot;:0};fillColor=#000000;" vertex="1" parent="1">
          <mxGeometry x="1420" y="220" width="10" height="80" as="geometry" />
        </mxCell>
        <mxCell id="9XWHqQ000PLASVVAu-tf-45" value="" style="ellipse;whiteSpace=wrap;html=1;aspect=fixed;" vertex="1" parent="1">
          <mxGeometry x="1500" y="110" width="80" height="80" as="geometry" />
        </mxCell>
        <mxCell id="9XWHqQ000PLASVVAu-tf-49" value="" style="edgeStyle=orthogonalEdgeStyle;rounded=0;orthogonalLoop=1;jettySize=auto;html=1;" edge="1" parent="1" source="9XWHqQ000PLASVVAu-tf-46" target="9XWHqQ000PLASVVAu-tf-48">
          <mxGeometry relative="1" as="geometry" />
        </mxCell>
        <mxCell id="9XWHqQ000PLASVVAu-tf-46" value="" style="ellipse;whiteSpace=wrap;html=1;aspect=fixed;" vertex="1" parent="1">
          <mxGeometry x="1500" y="220" width="80" height="80" as="geometry" />
        </mxCell>
        <mxCell id="9XWHqQ000PLASVVAu-tf-50" style="edgeStyle=orthogonalEdgeStyle;rounded=0;orthogonalLoop=1;jettySize=auto;html=1;curved=0;entryX=1;entryY=0.5;entryDx=0;entryDy=0;" edge="1" parent="1" source="9XWHqQ000PLASVVAu-tf-48" target="9XWHqQ000PLASVVAu-tf-45">
          <mxGeometry relative="1" as="geometry">
            <Array as="points">
              <mxPoint x="1680" y="230" />
              <mxPoint x="1680" y="150" />
            </Array>
          </mxGeometry>
        </mxCell>
        <mxCell id="9XWHqQ000PLASVVAu-tf-48" value="" style="html=1;points=[[0,0,0,0,5],[0,1,0,0,-5],[1,0,0,0,5],[1,1,0,0,-5]];perimeter=orthogonalPerimeter;outlineConnect=0;targetShapes=umlLifeline;portConstraint=eastwest;newEdgeStyle={&quot;curved&quot;:0,&quot;rounded&quot;:0};fillColor=#000000;" vertex="1" parent="1">
          <mxGeometry x="1640" y="220" width="10" height="80" as="geometry" />
        </mxCell>
        <mxCell id="9XWHqQ000PLASVVAu-tf-51" style="edgeStyle=orthogonalEdgeStyle;rounded=0;orthogonalLoop=1;jettySize=auto;html=1;entryX=0;entryY=0;entryDx=0;entryDy=5;entryPerimeter=0;" edge="1" parent="1" source="9XWHqQ000PLASVVAu-tf-45" target="9XWHqQ000PLASVVAu-tf-43">
          <mxGeometry relative="1" as="geometry">
            <Array as="points">
              <mxPoint x="1400" y="150" />
              <mxPoint x="1400" y="225" />
            </Array>
          </mxGeometry>
        </mxCell>
        <mxCell id="9XWHqQ000PLASVVAu-tf-52" value="" style="ellipse;whiteSpace=wrap;html=1;aspect=fixed;fillColor=#000000;" vertex="1" parent="1">
          <mxGeometry x="1515" y="145" width="25" height="25" as="geometry" />
        </mxCell>
        <mxCell id="9XWHqQ000PLASVVAu-tf-53" value="" style="ellipse;whiteSpace=wrap;html=1;aspect=fixed;fillColor=#000000;" vertex="1" parent="1">
          <mxGeometry x="1540" y="130" width="25" height="25" as="geometry" />
        </mxCell>
        <mxCell id="9XWHqQ000PLASVVAu-tf-54" value="" style="edgeStyle=orthogonalEdgeStyle;rounded=0;orthogonalLoop=1;jettySize=auto;html=1;curved=0;" edge="1" parent="1" source="9XWHqQ000PLASVVAu-tf-55" target="9XWHqQ000PLASVVAu-tf-58">
          <mxGeometry relative="1" as="geometry" />
        </mxCell>
        <mxCell id="9XWHqQ000PLASVVAu-tf-55" value="" style="html=1;points=[[0,0,0,0,5],[0,1,0,0,-5],[1,0,0,0,5],[1,1,0,0,-5]];perimeter=orthogonalPerimeter;outlineConnect=0;targetShapes=umlLifeline;portConstraint=eastwest;newEdgeStyle={&quot;curved&quot;:0,&quot;rounded&quot;:0};fillColor=#000000;" vertex="1" parent="1">
          <mxGeometry x="1420" y="540" width="10" height="80" as="geometry" />
        </mxCell>
        <mxCell id="9XWHqQ000PLASVVAu-tf-56" value="" style="ellipse;whiteSpace=wrap;html=1;aspect=fixed;" vertex="1" parent="1">
          <mxGeometry x="1500" y="430" width="80" height="80" as="geometry" />
        </mxCell>
        <mxCell id="9XWHqQ000PLASVVAu-tf-57" value="" style="edgeStyle=orthogonalEdgeStyle;rounded=0;orthogonalLoop=1;jettySize=auto;html=1;" edge="1" parent="1" source="9XWHqQ000PLASVVAu-tf-58" target="9XWHqQ000PLASVVAu-tf-60">
          <mxGeometry relative="1" as="geometry" />
        </mxCell>
        <mxCell id="9XWHqQ000PLASVVAu-tf-58" value="" style="ellipse;whiteSpace=wrap;html=1;aspect=fixed;" vertex="1" parent="1">
          <mxGeometry x="1500" y="540" width="80" height="80" as="geometry" />
        </mxCell>
        <mxCell id="9XWHqQ000PLASVVAu-tf-59" style="edgeStyle=orthogonalEdgeStyle;rounded=0;orthogonalLoop=1;jettySize=auto;html=1;curved=0;entryX=1;entryY=0.5;entryDx=0;entryDy=0;" edge="1" parent="1" source="9XWHqQ000PLASVVAu-tf-60" target="9XWHqQ000PLASVVAu-tf-56">
          <mxGeometry relative="1" as="geometry">
            <Array as="points">
              <mxPoint x="1680" y="550" />
              <mxPoint x="1680" y="470" />
            </Array>
          </mxGeometry>
        </mxCell>
        <mxCell id="9XWHqQ000PLASVVAu-tf-60" value="" style="html=1;points=[[0,0,0,0,5],[0,1,0,0,-5],[1,0,0,0,5],[1,1,0,0,-5]];perimeter=orthogonalPerimeter;outlineConnect=0;targetShapes=umlLifeline;portConstraint=eastwest;newEdgeStyle={&quot;curved&quot;:0,&quot;rounded&quot;:0};fillColor=#000000;" vertex="1" parent="1">
          <mxGeometry x="1640" y="540" width="10" height="80" as="geometry" />
        </mxCell>
        <mxCell id="9XWHqQ000PLASVVAu-tf-61" style="edgeStyle=orthogonalEdgeStyle;rounded=0;orthogonalLoop=1;jettySize=auto;html=1;entryX=0;entryY=0;entryDx=0;entryDy=5;entryPerimeter=0;" edge="1" parent="1" source="9XWHqQ000PLASVVAu-tf-56" target="9XWHqQ000PLASVVAu-tf-55">
          <mxGeometry relative="1" as="geometry">
            <Array as="points">
              <mxPoint x="1400" y="470" />
              <mxPoint x="1400" y="545" />
            </Array>
          </mxGeometry>
        </mxCell>
        <mxCell id="9XWHqQ000PLASVVAu-tf-63" value="" style="ellipse;whiteSpace=wrap;html=1;aspect=fixed;fillColor=#000000;" vertex="1" parent="1">
          <mxGeometry x="1527.5" y="457.5" width="25" height="25" as="geometry" />
        </mxCell>
        <mxCell id="9XWHqQ000PLASVVAu-tf-67" value="" style="edgeStyle=orthogonalEdgeStyle;rounded=0;orthogonalLoop=1;jettySize=auto;html=1;curved=0;" edge="1" parent="1">
          <mxGeometry relative="1" as="geometry">
            <mxPoint x="1430" y="590" as="sourcePoint" />
            <mxPoint x="1500" y="590" as="targetPoint" />
          </mxGeometry>
        </mxCell>
        <mxCell id="9XWHqQ000PLASVVAu-tf-74" value="" style="edgeStyle=orthogonalEdgeStyle;rounded=0;orthogonalLoop=1;jettySize=auto;html=1;" edge="1" parent="1" source="9XWHqQ000PLASVVAu-tf-68" target="9XWHqQ000PLASVVAu-tf-73">
          <mxGeometry relative="1" as="geometry" />
        </mxCell>
        <mxCell id="9XWHqQ000PLASVVAu-tf-68" value="" style="ellipse;whiteSpace=wrap;html=1;aspect=fixed;" vertex="1" parent="1">
          <mxGeometry x="1830" y="315" width="80" height="80" as="geometry" />
        </mxCell>
        <mxCell id="9XWHqQ000PLASVVAu-tf-71" value="" style="edgeStyle=orthogonalEdgeStyle;rounded=0;orthogonalLoop=1;jettySize=auto;html=1;" edge="1" parent="1">
          <mxGeometry relative="1" as="geometry">
            <mxPoint x="1580" y="590" as="sourcePoint" />
            <mxPoint x="1640" y="590" as="targetPoint" />
          </mxGeometry>
        </mxCell>
        <mxCell id="9XWHqQ000PLASVVAu-tf-72" style="edgeStyle=orthogonalEdgeStyle;rounded=0;orthogonalLoop=1;jettySize=auto;html=1;curved=0;entryX=-0.009;entryY=0.321;entryDx=0;entryDy=0;entryPerimeter=0;" edge="1" parent="1" source="9XWHqQ000PLASVVAu-tf-48" target="9XWHqQ000PLASVVAu-tf-68">
          <mxGeometry relative="1" as="geometry" />
        </mxCell>
        <mxCell id="9XWHqQ000PLASVVAu-tf-73" value="" style="html=1;points=[[0,0,0,0,5],[0,1,0,0,-5],[1,0,0,0,5],[1,1,0,0,-5]];perimeter=orthogonalPerimeter;outlineConnect=0;targetShapes=umlLifeline;portConstraint=eastwest;newEdgeStyle={&quot;curved&quot;:0,&quot;rounded&quot;:0};fillColor=#000000;" vertex="1" parent="1">
          <mxGeometry x="1980" y="315" width="10" height="80" as="geometry" />
        </mxCell>
        <mxCell id="9XWHqQ000PLASVVAu-tf-114" value="" style="edgeStyle=orthogonalEdgeStyle;rounded=0;orthogonalLoop=1;jettySize=auto;html=1;curved=0;" edge="1" parent="1" source="9XWHqQ000PLASVVAu-tf-75" target="9XWHqQ000PLASVVAu-tf-109">
          <mxGeometry relative="1" as="geometry" />
        </mxCell>
        <mxCell id="9XWHqQ000PLASVVAu-tf-75" value="" style="html=1;points=[[0,0,0,0,5],[0,1,0,0,-5],[1,0,0,0,5],[1,1,0,0,-5]];perimeter=orthogonalPerimeter;outlineConnect=0;targetShapes=umlLifeline;portConstraint=eastwest;newEdgeStyle={&quot;curved&quot;:0,&quot;rounded&quot;:0};fillColor=#000000;" vertex="1" parent="1">
          <mxGeometry x="1050" y="1140" width="10" height="80" as="geometry" />
        </mxCell>
        <mxCell id="9XWHqQ000PLASVVAu-tf-76" value="" style="edgeStyle=orthogonalEdgeStyle;rounded=0;orthogonalLoop=1;jettySize=auto;html=1;curved=0;" edge="1" parent="1" source="9XWHqQ000PLASVVAu-tf-77" target="9XWHqQ000PLASVVAu-tf-80">
          <mxGeometry relative="1" as="geometry" />
        </mxCell>
        <mxCell id="9XWHqQ000PLASVVAu-tf-77" value="" style="html=1;points=[[0,0,0,0,5],[0,1,0,0,-5],[1,0,0,0,5],[1,1,0,0,-5]];perimeter=orthogonalPerimeter;outlineConnect=0;targetShapes=umlLifeline;portConstraint=eastwest;newEdgeStyle={&quot;curved&quot;:0,&quot;rounded&quot;:0};fillColor=#000000;" vertex="1" parent="1">
          <mxGeometry x="1419.91" y="960" width="10" height="80" as="geometry" />
        </mxCell>
        <mxCell id="9XWHqQ000PLASVVAu-tf-78" value="" style="ellipse;whiteSpace=wrap;html=1;aspect=fixed;" vertex="1" parent="1">
          <mxGeometry x="1499.91" y="850" width="80" height="80" as="geometry" />
        </mxCell>
        <mxCell id="9XWHqQ000PLASVVAu-tf-79" value="" style="edgeStyle=orthogonalEdgeStyle;rounded=0;orthogonalLoop=1;jettySize=auto;html=1;" edge="1" parent="1" source="9XWHqQ000PLASVVAu-tf-80" target="9XWHqQ000PLASVVAu-tf-82">
          <mxGeometry relative="1" as="geometry" />
        </mxCell>
        <mxCell id="9XWHqQ000PLASVVAu-tf-80" value="" style="ellipse;whiteSpace=wrap;html=1;aspect=fixed;" vertex="1" parent="1">
          <mxGeometry x="1499.91" y="960" width="80" height="80" as="geometry" />
        </mxCell>
        <mxCell id="9XWHqQ000PLASVVAu-tf-81" style="edgeStyle=orthogonalEdgeStyle;rounded=0;orthogonalLoop=1;jettySize=auto;html=1;curved=0;entryX=1;entryY=0.5;entryDx=0;entryDy=0;" edge="1" parent="1" source="9XWHqQ000PLASVVAu-tf-82" target="9XWHqQ000PLASVVAu-tf-78">
          <mxGeometry relative="1" as="geometry">
            <Array as="points">
              <mxPoint x="1679.91" y="970" />
              <mxPoint x="1679.91" y="890" />
            </Array>
          </mxGeometry>
        </mxCell>
        <mxCell id="9XWHqQ000PLASVVAu-tf-119" style="edgeStyle=orthogonalEdgeStyle;rounded=0;orthogonalLoop=1;jettySize=auto;html=1;curved=0;entryX=0.5;entryY=0;entryDx=0;entryDy=0;" edge="1" parent="1" source="9XWHqQ000PLASVVAu-tf-82" target="9XWHqQ000PLASVVAu-tf-115">
          <mxGeometry relative="1" as="geometry" />
        </mxCell>
        <mxCell id="9XWHqQ000PLASVVAu-tf-82" value="" style="html=1;points=[[0,0,0,0,5],[0,1,0,0,-5],[1,0,0,0,5],[1,1,0,0,-5]];perimeter=orthogonalPerimeter;outlineConnect=0;targetShapes=umlLifeline;portConstraint=eastwest;newEdgeStyle={&quot;curved&quot;:0,&quot;rounded&quot;:0};fillColor=#000000;" vertex="1" parent="1">
          <mxGeometry x="1639.91" y="960" width="10" height="80" as="geometry" />
        </mxCell>
        <mxCell id="9XWHqQ000PLASVVAu-tf-83" style="edgeStyle=orthogonalEdgeStyle;rounded=0;orthogonalLoop=1;jettySize=auto;html=1;entryX=0;entryY=0;entryDx=0;entryDy=5;entryPerimeter=0;" edge="1" parent="1" source="9XWHqQ000PLASVVAu-tf-78" target="9XWHqQ000PLASVVAu-tf-77">
          <mxGeometry relative="1" as="geometry">
            <Array as="points">
              <mxPoint x="1399.91" y="890" />
              <mxPoint x="1399.91" y="965" />
            </Array>
          </mxGeometry>
        </mxCell>
        <mxCell id="9XWHqQ000PLASVVAu-tf-84" value="" style="ellipse;whiteSpace=wrap;html=1;aspect=fixed;fillColor=#000000;" vertex="1" parent="1">
          <mxGeometry x="1527.41" y="877.5" width="25" height="25" as="geometry" />
        </mxCell>
        <mxCell id="9XWHqQ000PLASVVAu-tf-87" value="" style="edgeStyle=orthogonalEdgeStyle;rounded=0;orthogonalLoop=1;jettySize=auto;html=1;curved=0;" edge="1" parent="1" source="9XWHqQ000PLASVVAu-tf-88" target="9XWHqQ000PLASVVAu-tf-91">
          <mxGeometry relative="1" as="geometry" />
        </mxCell>
        <mxCell id="9XWHqQ000PLASVVAu-tf-88" value="" style="html=1;points=[[0,0,0,0,5],[0,1,0,0,-5],[1,0,0,0,5],[1,1,0,0,-5]];perimeter=orthogonalPerimeter;outlineConnect=0;targetShapes=umlLifeline;portConstraint=eastwest;newEdgeStyle={&quot;curved&quot;:0,&quot;rounded&quot;:0};fillColor=#000000;" vertex="1" parent="1">
          <mxGeometry x="1419.91" y="1230" width="10" height="80" as="geometry" />
        </mxCell>
        <mxCell id="9XWHqQ000PLASVVAu-tf-89" value="" style="ellipse;whiteSpace=wrap;html=1;aspect=fixed;" vertex="1" parent="1">
          <mxGeometry x="1499.91" y="1120" width="80" height="80" as="geometry" />
        </mxCell>
        <mxCell id="9XWHqQ000PLASVVAu-tf-90" value="" style="edgeStyle=orthogonalEdgeStyle;rounded=0;orthogonalLoop=1;jettySize=auto;html=1;" edge="1" parent="1" source="9XWHqQ000PLASVVAu-tf-91" target="9XWHqQ000PLASVVAu-tf-93">
          <mxGeometry relative="1" as="geometry" />
        </mxCell>
        <mxCell id="9XWHqQ000PLASVVAu-tf-91" value="" style="ellipse;whiteSpace=wrap;html=1;aspect=fixed;" vertex="1" parent="1">
          <mxGeometry x="1499.91" y="1230" width="80" height="80" as="geometry" />
        </mxCell>
        <mxCell id="9XWHqQ000PLASVVAu-tf-92" style="edgeStyle=orthogonalEdgeStyle;rounded=0;orthogonalLoop=1;jettySize=auto;html=1;curved=0;entryX=1;entryY=0.5;entryDx=0;entryDy=0;" edge="1" parent="1" source="9XWHqQ000PLASVVAu-tf-93" target="9XWHqQ000PLASVVAu-tf-89">
          <mxGeometry relative="1" as="geometry">
            <Array as="points">
              <mxPoint x="1679.91" y="1240" />
              <mxPoint x="1679.91" y="1160" />
            </Array>
          </mxGeometry>
        </mxCell>
        <mxCell id="9XWHqQ000PLASVVAu-tf-117" value="" style="edgeStyle=orthogonalEdgeStyle;rounded=0;orthogonalLoop=1;jettySize=auto;html=1;curved=0;" edge="1" parent="1" source="9XWHqQ000PLASVVAu-tf-93" target="9XWHqQ000PLASVVAu-tf-115">
          <mxGeometry relative="1" as="geometry" />
        </mxCell>
        <mxCell id="9XWHqQ000PLASVVAu-tf-93" value="" style="html=1;points=[[0,0,0,0,5],[0,1,0,0,-5],[1,0,0,0,5],[1,1,0,0,-5]];perimeter=orthogonalPerimeter;outlineConnect=0;targetShapes=umlLifeline;portConstraint=eastwest;newEdgeStyle={&quot;curved&quot;:0,&quot;rounded&quot;:0};fillColor=#000000;" vertex="1" parent="1">
          <mxGeometry x="1639.91" y="1230" width="10" height="80" as="geometry" />
        </mxCell>
        <mxCell id="9XWHqQ000PLASVVAu-tf-94" style="edgeStyle=orthogonalEdgeStyle;rounded=0;orthogonalLoop=1;jettySize=auto;html=1;entryX=0;entryY=0;entryDx=0;entryDy=5;entryPerimeter=0;" edge="1" parent="1" source="9XWHqQ000PLASVVAu-tf-89" target="9XWHqQ000PLASVVAu-tf-88">
          <mxGeometry relative="1" as="geometry">
            <Array as="points">
              <mxPoint x="1399.91" y="1160" />
              <mxPoint x="1399.91" y="1235" />
            </Array>
          </mxGeometry>
        </mxCell>
        <mxCell id="9XWHqQ000PLASVVAu-tf-95" value="" style="ellipse;whiteSpace=wrap;html=1;aspect=fixed;fillColor=#000000;" vertex="1" parent="1">
          <mxGeometry x="1527.41" y="1147.5" width="25" height="25" as="geometry" />
        </mxCell>
        <mxCell id="9XWHqQ000PLASVVAu-tf-96" value="" style="edgeStyle=orthogonalEdgeStyle;rounded=0;orthogonalLoop=1;jettySize=auto;html=1;curved=0;" edge="1" parent="1" source="9XWHqQ000PLASVVAu-tf-97" target="9XWHqQ000PLASVVAu-tf-100">
          <mxGeometry relative="1" as="geometry" />
        </mxCell>
        <mxCell id="9XWHqQ000PLASVVAu-tf-97" value="" style="html=1;points=[[0,0,0,0,5],[0,1,0,0,-5],[1,0,0,0,5],[1,1,0,0,-5]];perimeter=orthogonalPerimeter;outlineConnect=0;targetShapes=umlLifeline;portConstraint=eastwest;newEdgeStyle={&quot;curved&quot;:0,&quot;rounded&quot;:0};fillColor=#000000;" vertex="1" parent="1">
          <mxGeometry x="1419.91" y="1500" width="10" height="80" as="geometry" />
        </mxCell>
        <mxCell id="9XWHqQ000PLASVVAu-tf-98" value="" style="ellipse;whiteSpace=wrap;html=1;aspect=fixed;" vertex="1" parent="1">
          <mxGeometry x="1499.91" y="1390" width="80" height="80" as="geometry" />
        </mxCell>
        <mxCell id="9XWHqQ000PLASVVAu-tf-99" value="" style="edgeStyle=orthogonalEdgeStyle;rounded=0;orthogonalLoop=1;jettySize=auto;html=1;" edge="1" parent="1" source="9XWHqQ000PLASVVAu-tf-100" target="9XWHqQ000PLASVVAu-tf-102">
          <mxGeometry relative="1" as="geometry" />
        </mxCell>
        <mxCell id="9XWHqQ000PLASVVAu-tf-100" value="" style="ellipse;whiteSpace=wrap;html=1;aspect=fixed;" vertex="1" parent="1">
          <mxGeometry x="1499.91" y="1500" width="80" height="80" as="geometry" />
        </mxCell>
        <mxCell id="9XWHqQ000PLASVVAu-tf-101" style="edgeStyle=orthogonalEdgeStyle;rounded=0;orthogonalLoop=1;jettySize=auto;html=1;curved=0;entryX=1;entryY=0.5;entryDx=0;entryDy=0;" edge="1" parent="1" source="9XWHqQ000PLASVVAu-tf-102" target="9XWHqQ000PLASVVAu-tf-98">
          <mxGeometry relative="1" as="geometry">
            <Array as="points">
              <mxPoint x="1679.91" y="1510" />
              <mxPoint x="1679.91" y="1430" />
            </Array>
          </mxGeometry>
        </mxCell>
        <mxCell id="9XWHqQ000PLASVVAu-tf-118" style="edgeStyle=orthogonalEdgeStyle;rounded=0;orthogonalLoop=1;jettySize=auto;html=1;curved=0;entryX=0.5;entryY=1;entryDx=0;entryDy=0;" edge="1" parent="1" source="9XWHqQ000PLASVVAu-tf-102" target="9XWHqQ000PLASVVAu-tf-115">
          <mxGeometry relative="1" as="geometry" />
        </mxCell>
        <mxCell id="9XWHqQ000PLASVVAu-tf-102" value="" style="html=1;points=[[0,0,0,0,5],[0,1,0,0,-5],[1,0,0,0,5],[1,1,0,0,-5]];perimeter=orthogonalPerimeter;outlineConnect=0;targetShapes=umlLifeline;portConstraint=eastwest;newEdgeStyle={&quot;curved&quot;:0,&quot;rounded&quot;:0};fillColor=#000000;" vertex="1" parent="1">
          <mxGeometry x="1639.91" y="1500" width="10" height="80" as="geometry" />
        </mxCell>
        <mxCell id="9XWHqQ000PLASVVAu-tf-103" style="edgeStyle=orthogonalEdgeStyle;rounded=0;orthogonalLoop=1;jettySize=auto;html=1;entryX=0;entryY=0;entryDx=0;entryDy=5;entryPerimeter=0;" edge="1" parent="1" source="9XWHqQ000PLASVVAu-tf-98" target="9XWHqQ000PLASVVAu-tf-97">
          <mxGeometry relative="1" as="geometry">
            <Array as="points">
              <mxPoint x="1399.91" y="1430" />
              <mxPoint x="1399.91" y="1505" />
            </Array>
          </mxGeometry>
        </mxCell>
        <mxCell id="9XWHqQ000PLASVVAu-tf-104" value="" style="ellipse;whiteSpace=wrap;html=1;aspect=fixed;fillColor=#000000;" vertex="1" parent="1">
          <mxGeometry x="1527.41" y="1417.5" width="25" height="25" as="geometry" />
        </mxCell>
        <mxCell id="9XWHqQ000PLASVVAu-tf-107" style="edgeStyle=orthogonalEdgeStyle;rounded=0;orthogonalLoop=1;jettySize=auto;html=1;curved=0;entryX=0;entryY=1;entryDx=0;entryDy=0;" edge="1" parent="1" source="9XWHqQ000PLASVVAu-tf-60" target="9XWHqQ000PLASVVAu-tf-68">
          <mxGeometry relative="1" as="geometry">
            <Array as="points">
              <mxPoint x="1770" y="590" />
              <mxPoint x="1770" y="383" />
            </Array>
          </mxGeometry>
        </mxCell>
        <mxCell id="9XWHqQ000PLASVVAu-tf-108" style="edgeStyle=orthogonalEdgeStyle;rounded=0;orthogonalLoop=1;jettySize=auto;html=1;curved=0;" edge="1" parent="1" source="9XWHqQ000PLASVVAu-tf-60">
          <mxGeometry relative="1" as="geometry">
            <mxPoint x="1830" y="360" as="targetPoint" />
            <Array as="points">
              <mxPoint x="1740" y="580" />
              <mxPoint x="1740" y="360" />
              <mxPoint x="1830" y="360" />
            </Array>
          </mxGeometry>
        </mxCell>
        <mxCell id="9XWHqQ000PLASVVAu-tf-111" style="edgeStyle=orthogonalEdgeStyle;rounded=0;orthogonalLoop=1;jettySize=auto;html=1;" edge="1" parent="1" source="9XWHqQ000PLASVVAu-tf-109" target="9XWHqQ000PLASVVAu-tf-88">
          <mxGeometry relative="1" as="geometry">
            <Array as="points">
              <mxPoint x="1290" y="1180" />
              <mxPoint x="1290" y="1270" />
            </Array>
          </mxGeometry>
        </mxCell>
        <mxCell id="9XWHqQ000PLASVVAu-tf-112" style="edgeStyle=orthogonalEdgeStyle;rounded=0;orthogonalLoop=1;jettySize=auto;html=1;" edge="1" parent="1" source="9XWHqQ000PLASVVAu-tf-109" target="9XWHqQ000PLASVVAu-tf-77">
          <mxGeometry relative="1" as="geometry">
            <Array as="points">
              <mxPoint x="1260" y="1150" />
              <mxPoint x="1260" y="1000" />
            </Array>
          </mxGeometry>
        </mxCell>
        <mxCell id="9XWHqQ000PLASVVAu-tf-113" style="edgeStyle=orthogonalEdgeStyle;rounded=0;orthogonalLoop=1;jettySize=auto;html=1;" edge="1" parent="1" source="9XWHqQ000PLASVVAu-tf-109" target="9XWHqQ000PLASVVAu-tf-97">
          <mxGeometry relative="1" as="geometry">
            <Array as="points">
              <mxPoint x="1270" y="1200" />
              <mxPoint x="1270" y="1540" />
            </Array>
          </mxGeometry>
        </mxCell>
        <mxCell id="9XWHqQ000PLASVVAu-tf-109" value="" style="ellipse;whiteSpace=wrap;html=1;aspect=fixed;" vertex="1" parent="1">
          <mxGeometry x="1160" y="1140" width="80" height="80" as="geometry" />
        </mxCell>
        <mxCell id="9XWHqQ000PLASVVAu-tf-121" value="" style="edgeStyle=orthogonalEdgeStyle;rounded=0;orthogonalLoop=1;jettySize=auto;html=1;" edge="1" parent="1" source="9XWHqQ000PLASVVAu-tf-115" target="9XWHqQ000PLASVVAu-tf-120">
          <mxGeometry relative="1" as="geometry" />
        </mxCell>
        <mxCell id="9XWHqQ000PLASVVAu-tf-115" value="" style="ellipse;whiteSpace=wrap;html=1;aspect=fixed;" vertex="1" parent="1">
          <mxGeometry x="1730" y="1230" width="80" height="80" as="geometry" />
        </mxCell>
        <mxCell id="9XWHqQ000PLASVVAu-tf-120" value="" style="html=1;points=[[0,0,0,0,5],[0,1,0,0,-5],[1,0,0,0,5],[1,1,0,0,-5]];perimeter=orthogonalPerimeter;outlineConnect=0;targetShapes=umlLifeline;portConstraint=eastwest;newEdgeStyle={&quot;curved&quot;:0,&quot;rounded&quot;:0};fillColor=#000000;" vertex="1" parent="1">
          <mxGeometry x="1900" y="1230" width="10" height="80" as="geometry" />
        </mxCell>
        <mxCell id="9XWHqQ000PLASVVAu-tf-122" value="&lt;div&gt;Vehiculo ingresa&lt;/div&gt;&lt;div&gt;por arteria 1&lt;br&gt;&lt;/div&gt;" style="text;html=1;align=center;verticalAlign=middle;resizable=0;points=[];autosize=1;strokeColor=none;fillColor=none;" vertex="1" parent="1">
          <mxGeometry x="100" y="580" width="110" height="40" as="geometry" />
        </mxCell>
        <mxCell id="9XWHqQ000PLASVVAu-tf-123" value="&lt;div&gt;Vehiculo ingresa&lt;/div&gt;&lt;div&gt;por arteria 2&lt;br&gt;&lt;/div&gt;" style="text;html=1;align=center;verticalAlign=middle;resizable=0;points=[];autosize=1;strokeColor=none;fillColor=none;" vertex="1" parent="1">
          <mxGeometry x="100" y="850" width="110" height="40" as="geometry" />
        </mxCell>
        <mxCell id="9XWHqQ000PLASVVAu-tf-124" value="&lt;div&gt;Vehiculos esperando&lt;/div&gt;&lt;div&gt;ingreso a &lt;br&gt;&lt;/div&gt;&lt;div&gt;rotonda&lt;br&gt;&lt;/div&gt;" style="text;html=1;align=center;verticalAlign=middle;resizable=0;points=[];autosize=1;strokeColor=none;fillColor=none;" vertex="1" parent="1">
          <mxGeometry x="260" y="785" width="140" height="60" as="geometry" />
        </mxCell>
        <mxCell id="9XWHqQ000PLASVVAu-tf-125" value="&lt;div&gt;Ingresando&lt;/div&gt;&lt;div&gt;a rotonda&lt;br&gt;&lt;/div&gt;" style="text;html=1;align=center;verticalAlign=middle;resizable=0;points=[];autosize=1;strokeColor=none;fillColor=none;" vertex="1" parent="1">
          <mxGeometry x="560" y="855" width="90" height="40" as="geometry" />
        </mxCell>
        <mxCell id="9XWHqQ000PLASVVAu-tf-126" value="&lt;div&gt;Vehiculos en&lt;/div&gt;&lt;div&gt;rotonda&lt;br&gt;&lt;/div&gt;" style="text;html=1;align=center;verticalAlign=middle;resizable=0;points=[];autosize=1;strokeColor=none;fillColor=none;" vertex="1" parent="1">
          <mxGeometry x="685" y="855" width="90" height="40" as="geometry" />
        </mxCell>
        <mxCell id="9XWHqQ000PLASVVAu-tf-127" value="&lt;div&gt;Salida de&lt;/div&gt;&lt;div&gt;rotonda&lt;br&gt;&lt;/div&gt;" style="text;html=1;align=center;verticalAlign=middle;resizable=0;points=[];autosize=1;strokeColor=none;fillColor=none;" vertex="1" parent="1">
          <mxGeometry x="815" y="855" width="80" height="40" as="geometry" />
        </mxCell>
        <mxCell id="9XWHqQ000PLASVVAu-tf-128" value="&lt;div&gt;Espacios disponibles&lt;/div&gt;&lt;div&gt;en rotonda&lt;br&gt;&lt;/div&gt;" style="text;html=1;align=center;verticalAlign=middle;resizable=0;points=[];autosize=1;strokeColor=none;fillColor=none;" vertex="1" parent="1">
          <mxGeometry x="660" y="590" width="140" height="40" as="geometry" />
        </mxCell>
        <mxCell id="9XWHqQ000PLASVVAu-tf-129" value="&lt;div&gt;Vehiculos seleccionando&lt;/div&gt;&lt;div&gt;ruta&lt;br&gt;&lt;/div&gt;" style="text;html=1;align=center;verticalAlign=middle;resizable=0;points=[];autosize=1;strokeColor=none;fillColor=none;" vertex="1" parent="1">
          <mxGeometry x="910" y="727.5" width="160" height="40" as="geometry" />
        </mxCell>
        <mxCell id="9XWHqQ000PLASVVAu-tf-130" value="Ingreso a ruta 11" style="text;html=1;align=center;verticalAlign=middle;resizable=0;points=[];autosize=1;strokeColor=none;fillColor=none;" vertex="1" parent="1">
          <mxGeometry x="1070" y="650" width="120" height="30" as="geometry" />
        </mxCell>
        <mxCell id="9XWHqQ000PLASVVAu-tf-131" value="&lt;div&gt;Vehiculos en espera&lt;/div&gt;&lt;div&gt;de control&lt;br&gt;&lt;/div&gt;" style="text;html=1;align=center;verticalAlign=middle;resizable=0;points=[];autosize=1;strokeColor=none;fillColor=none;" vertex="1" parent="1">
          <mxGeometry x="1270" y="705" width="140" height="40" as="geometry" />
        </mxCell>
        <mxCell id="9XWHqQ000PLASVVAu-tf-132" value="&lt;div&gt;Par ingresa a&lt;/div&gt;&lt;div&gt;control 2&lt;br&gt;&lt;/div&gt;" style="text;html=1;align=center;verticalAlign=middle;resizable=0;points=[];autosize=1;strokeColor=none;fillColor=none;" vertex="1" parent="1">
          <mxGeometry x="1374.91" y="620" width="100" height="40" as="geometry" />
        </mxCell>
        <mxCell id="9XWHqQ000PLASVVAu-tf-133" value="&lt;div&gt;Par sale de&lt;/div&gt;&lt;div&gt;control 2&lt;br&gt;&lt;/div&gt;" style="text;html=1;align=center;verticalAlign=middle;resizable=0;points=[];autosize=1;strokeColor=none;fillColor=none;" vertex="1" parent="1">
          <mxGeometry x="1605" y="620" width="90" height="40" as="geometry" />
        </mxCell>
        <mxCell id="9XWHqQ000PLASVVAu-tf-134" value="Controlando vehiculos" style="text;html=1;align=center;verticalAlign=middle;resizable=0;points=[];autosize=1;strokeColor=none;fillColor=none;" vertex="1" parent="1">
          <mxGeometry x="1464.91" y="625" width="150" height="30" as="geometry" />
        </mxCell>
      </root>
    </mxGraphModel>
  </diagram>
</mxfile>
